<svg xmlns="http://www.w3.org/2000/svg" viewBox="0 0 64 64" fill="none" aria-hidden="true">
  <!-- Receipt -->
  <path d="M44 46h8v14l-1.2-.8-1.3.8-1.2-.8-1.3.8-1.2-.8-1.3.8-1.2-.8-1.3.8V46z" fill="white" opacity="0.92"/>
  <path d="M46 49h4M46 52h4M46 55h3" stroke="#16a34a" stroke-width="1.2" stroke-linecap="round" opacity="0.7"/>
  <!-- Terminal body -->
  <rect x="10" y="28" width="34" height="22" rx="4" fill="white" opacity="0.95"/>
  <!-- Keypad -->
  <rect x="14" y="32" width="5" height="4" rx="1" fill="#16a34a" opacity="0.85"/>
  <rect x="21" y="32" width="5" height="4" rx="1" fill="#16a34a" opacity="0.85"/>
  <rect x="28" y="32" width="5" height="4" rx="1" fill="#16a34a" opacity="0.85"/>
  <rect x="35" y="32" width="5" height="4" rx="1" fill="#16a34a" opacity="0.85"/>
  <rect x="14" y="38" width="5" height="4" rx="1" fill="#16a34a" opacity="0.65"/>
  <rect x="21" y="38" width="5" height="4" rx="1" fill="#16a34a" opacity="0.65"/>
  <rect x="28" y="38" width="5" height="4" rx="1" fill="#16a34a" opacity="0.65"/>
  <rect x="35" y="38" width="5" height="4" rx="1" fill="#16a34a" opacity="0.65"/>
  <rect x="21" y="44" width="12" height="4" rx="1.5" fill="#22c55e"/>
  <!-- Card slot -->
  <rect x="14" y="44" width="5" height="4" rx="1" fill="#16a34a" opacity="0.45"/>
  <!-- Screen -->
  <rect x="14" y="8" width="26" height="18" rx="3" fill="white" opacity="0.98"/>
  <rect x="16" y="10" width="22" height="14" rx="2" fill="#064e3b" opacity="0.35"/>
  <!-- Screen UI lines -->
  <rect x="18" y="12" width="10" height="2" rx="1" fill="white" opacity="0.9"/>
  <rect x="18" y="16" width="14" height="1.5" rx="0.75" fill="white" opacity="0.55"/>
  <rect x="18" y="19" width="12" height="1.5" rx="0.75" fill="white" opacity="0.45"/>
  <!-- Total badge -->
  <rect x="30" y="18" width="8" height="5" rx="1.5" fill="#22c55e"/>
  <path d="M32 21.5h4" stroke="white" stroke-width="1.2" stroke-linecap="round"/>
  <!-- Screen stand -->
  <path d="M24 26h6v2h-6z" fill="white" opacity="0.85"/>
  <!-- Table/chair hint -->
  <circle cx="52" cy="18" r="3" fill="white" opacity="0.35"/>
  <path d="M48 24h8v2h-8zM50 26v4M54 26v4" stroke="white" stroke-width="1.5" stroke-linecap="round" opacity="0.35"/>
</svg>
